<svg xmlns="http://www.w3.org/2000/svg" id="Capa_1" data-name="Capa 1" viewBox="0 0 600 100"><g><path d="M81.97,27.18h11.6v8.16l.21,.21c3.65-6.12,9.99-9.88,17.29-9.88,12.03,0,19.65,6.44,19.65,18.9v38.12h-12.24V47.8c-.21-8.7-3.65-12.46-10.84-12.46-8.16,0-13.42,6.44-13.42,14.6v32.75h-12.24V27.18Z"></path><path d="M154.34,27.29h11.27v5.69h-11.27v37.37c0,4.4,.64,6.98,5.48,7.3,1.93,0,3.87-.11,5.8-.32v5.8c-2.04,0-3.97,.21-6.01,.21-9.02,0-12.13-3.01-12.03-12.46V32.98h-9.66v-5.69h9.66V10.65h6.76V27.29Z"></path><path d="M175.5,6.03h6.76v10.85h-6.76V6.03Zm0,21.26h6.76v55.41h-6.76V27.29Z"></path><path d="M234.34,44.69c-1.83-8.27-6.87-13.32-15.68-13.32-12.99,0-19.44,11.81-19.44,23.62s6.44,23.62,19.44,23.62c8.38,0,15.25-6.55,16.11-15.78h6.76c-1.83,13.31-10.52,21.47-22.87,21.47-16.97,0-26.2-13.42-26.2-29.31s9.23-29.31,26.2-29.31c11.81,0,20.94,6.33,22.44,19.01h-6.76Z"></path></g><g><path d="M259.74,27.59h11.44v7.62h.32c3.6-5.4,8.15-9.11,16.84-9.11,6.67,0,12.92,2.86,15.35,9.11,4.02-5.61,9.21-9.11,17.15-9.11,11.54,0,18.32,5.08,18.32,18.43v37.8h-12.07v-31.98c0-8.68-.53-14.72-9.95-14.72-8.15,0-11.65,5.4-11.65,14.61v32.09h-12.07V47.19c0-7.52-2.33-11.54-9.64-11.54-6.25,0-11.97,5.08-11.97,14.19v32.51h-12.07V27.59Z"></path><path d="M397.72,70.16c0,2.96,.64,4.13,2.86,4.13,.74,0,1.69,0,2.97-.21v8.37c-1.8,.64-5.61,1.38-7.62,1.38-4.87,0-8.37-1.69-9.32-6.67-4.77,4.66-12.5,6.67-18.96,6.67-9.85,0-18.74-5.29-18.74-15.99,0-13.66,10.91-15.88,21.07-17.05,8.68-1.59,16.41-.64,16.41-7.73,0-6.25-6.46-7.41-11.33-7.41-6.78,0-11.54,2.75-12.07,8.68h-12.07c.85-14.08,12.81-18.21,24.89-18.21,10.7,0,21.92,4.34,21.92,15.88v28.17Zm-12.07-15.25c-3.71,2.44-9.53,2.33-14.83,3.28-5.19,.85-9.85,2.75-9.85,9.11,0,5.4,6.88,6.99,11.12,6.99,5.29,0,13.55-2.75,13.55-10.38v-9Z"></path><path d="M419.85,64.76c.64,6.99,5.93,9.53,12.39,9.53,4.55,0,12.5-.95,12.18-7.2-.32-6.35-9.11-7.09-17.9-9.11-8.9-1.91-17.58-5.08-17.58-16.2,0-11.97,12.92-15.67,22.87-15.67,11.22,0,21.39,4.66,22.87,16.84h-12.6c-1.06-5.72-5.82-7.31-11.12-7.31-3.49,0-9.95,.85-9.95,5.61,0,5.93,8.9,6.78,17.79,8.79,8.79,2.01,17.68,5.19,17.68,15.99,0,13.02-13.13,17.79-24.46,17.79-13.77,0-24.04-6.14-24.25-19.06h12.07Z"></path><path d="M460.2,27.59h9.11V11.18h12.07V27.59h10.91v9h-10.91v29.23c0,4.98,.42,7.52,5.82,7.52,1.69,0,3.39,0,5.08-.42v9.32c-2.65,.21-5.19,.63-7.84,.63-12.6,0-14.93-4.87-15.14-13.98V36.6h-9.11v-9Z"></path><path d="M510.39,58.09c0,8.58,4.66,16.2,14.72,16.2,6.99,0,11.23-3.07,13.34-9.11h11.44c-2.65,11.97-12.81,18.64-24.78,18.64-17.16,0-26.79-11.97-26.79-28.8,0-15.57,10.17-28.91,26.47-28.91,17.26,0,27.85,15.57,25.84,31.98h-40.24Zm28.17-7.94c-.42-7.62-5.61-14.51-13.77-14.51s-14.08,6.35-14.4,14.51h28.17Z"></path><path d="M559.85,27.59h11.33v10.59h.21c1.38-5.82,8.58-12.07,15.99-12.07,2.75,0,3.49,.21,4.55,.32v11.65c-1.69-.21-3.49-.53-5.19-.53-8.26,0-14.83,6.67-14.83,18.74v26.05h-12.07V27.59Z"></path></g><g><rect x="8.07" y="29.92" width="25.2" height="25.2" rx="1.87" ry="1.87"></rect><rect x="40.19" y="31.9" width="21.25" height="21.25" rx="10.63" ry="10.63"></rect><rect x="40.19" y="63.03" width="21.25" height="21.25" rx="10.63" ry="10.63"></rect><rect x="10.05" y="63.03" width="21.25" height="21.25" rx="10.63" ry="10.63"></rect></g></svg>